<svg width="96" height="96" fill="none"><path fill="#fff" d="M25.322 33.597c12.525-12.263 32.83-12.263 45.355 0l1.507 1.476a1.547 1.547 0 0 1 0 2.22l-5.156 5.048a.814.814 0 0 1-1.134 0l-2.074-2.03c-8.737-8.555-22.903-8.555-31.64 0l-2.222 2.175a.814.814 0 0 1-1.134 0l-5.156-5.049a1.547 1.547 0 0 1 0-2.22l1.654-1.62Zm56.019 10.44 4.589 4.494a1.547 1.547 0 0 1 0 2.22l-20.693 20.26a1.628 1.628 0 0 1-2.267 0L48.283 56.632a.407.407 0 0 0-.567 0L33.03 71.012a1.628 1.628 0 0 1-2.268 0L10.07 50.75a1.547 1.547 0 0 1 0-2.22l4.59-4.494a1.628 1.628 0 0 1 2.267 0l14.687 14.38c.156.153.41.153.567 0l14.685-14.38a1.628 1.628 0 0 1 2.268 0l14.687 14.38c.156.153.41.153.567 0l14.686-14.38a1.628 1.628 0 0 1 2.268 0Z"></path><path stroke="#000" d="M25.672 33.954c12.33-12.072 32.325-12.072 44.655 0l1.508 1.476a1.047 1.047 0 0 1 0 1.506l-5.157 5.048a.314.314 0 0 1-.434 0l-2.074-2.03c-8.932-8.746-23.409-8.746-32.34 0l-2.222 2.174a.314.314 0 0 1-.434 0l-5.157-5.048a1.047 1.047 0 0 1 0-1.506l1.655-1.62Zm55.319 10.44 4.59 4.494a1.047 1.047 0 0 1 0 1.506l-20.694 20.26a1.128 1.128 0 0 1-1.568 0l-14.686-14.38a.907.907 0 0 0-1.267 0L32.68 70.655a1.128 1.128 0 0 1-1.568 0L10.42 50.394a1.047 1.047 0 0 1 0-1.506l4.59-4.493a1.128 1.128 0 0 1 1.567 0l14.687 14.379a.907.907 0 0 0 1.266 0l-.35-.357.35.357 14.686-14.38a1.128 1.128 0 0 1 1.568 0l14.687 14.38a.907.907 0 0 0 1.267 0l14.686-14.38a1.128 1.128 0 0 1 1.568 0Z"></path></svg>